Coordinates
version=1
nRows=17
nColumns=40
inDegrees=yes

Units are S.I. units (second, meters, Newtons, ...)
Angles are in degrees.

endheader
time	pelvis_tilt	pelvis_list	pelvis_rotation	pelvis_tx	pelvis_ty	pelvis_tz	hip_flexion_r	hip_adduction_r	hip_rotation_r	knee_angle_r	knee_angle_r_beta	ankle_angle_r	subtalar_angle_r	mtp_angle_r	hip_flexion_l	hip_adduction_l	hip_rotation_l	knee_angle_l	knee_angle_l_beta	ankle_angle_l	subtalar_angle_l	mtp_angle_l	lumbar_extension	lumbar_bending	lumbar_rotation	arm_flex_r	arm_add_r	arm_rot_r	elbow_flex_r	pro_sup_r	wrist_flex_r	wrist_dev_r	arm_flex_l	arm_add_l	arm_rot_l	elbow_flex_l	pro_sup_l	wrist_flex_l	wrist_dev_l
     36.27500000	     -5.16926362	     -4.13382519	    -11.15170829	      0.91307529	      0.92448373	      0.51194537	     20.31175399	      4.55078547	     -1.62367207	     21.78731933	     21.78731933	      9.52093951	      5.20155859	     -3.10631061	     -2.71496457	     -9.11460403	    -13.42258661	     14.30894183	     14.30894183	     18.31046031	     -8.43995398	      2.13723833	     -7.51353223	      7.07830346	      0.48688551	     -9.96633077	    -13.70398674	    -14.95959579	     27.80915804	     46.04443681	      0.00000000	      0.00000000	     38.43502315	    -20.90625118	    -10.94135501	     78.80814966	     48.03578353	      0.00000000	      0.00000000
     36.29885714	     -5.07507847	     -4.14505534	    -10.74491972	      0.91452298	      0.92496754	      0.51727548	     19.74725543	      4.76586275	     -1.86229890	     21.82770234	     21.82770234	      9.91597840	      5.04741681	     -3.17503067	     -2.90828946	     -9.56407749	    -13.18187314	     14.80961817	     14.80961817	     17.92145509	     -8.37033885	      2.26546487	     -7.57572760	      6.83446279	      0.48683306	     -9.87846035	    -13.97844250	    -15.01565576	     27.82520056	     46.05064085	      0.00000000	      0.00000000	     37.19068462	    -20.30447286	    -10.63148888	     78.34243034	     47.99854812	      0.00000000	      0.00000000
     36.32271429	     -5.14858473	     -4.48405555	    -10.28460903	      0.91557559	      0.92524815	      0.52249747	     19.14774211	      5.39351347	     -2.05280275	     21.51732815	     21.51732815	     10.29377441	      4.72440488	     -2.38882425	     -2.37969119	    -10.61937988	    -13.06635886	     16.48821086	     16.48821086	     18.37143496	     -7.92934292	      3.06016891	     -7.41671918	      7.07320547	      0.54914125	     -9.56396348	    -14.28700959	    -15.54213981	     27.51332669	     46.13112457	      0.00000000	      0.00000000	     35.92486052	    -20.03208398	     -9.33654183	     76.36727583	     47.86898930	      0.00000000	      0.00000000
     36.34657143	     -5.11998904	     -4.59849731	     -9.84940648	      0.91648196	      0.92554705	      0.52730357	     18.57739622	      5.71615428	     -2.34830319	     21.35838919	     21.35838919	     10.57198792	      4.58905933	     -2.33311283	     -1.95477679	    -11.28554594	    -12.50690584	     17.95738740	     17.95738740	     18.07552177	     -8.31575000	      2.90463143	     -7.40306387	      7.04352642	      0.45873479	     -9.14228427	    -14.56822514	    -15.68602975	     27.70317329	     46.14285376	      0.00000000	      0.00000000	     34.13453340	    -19.51538530	     -8.94059540	     75.23897490	     47.81054721	      0.00000000	      0.00000000
     36.37042857	     -5.06601316	     -4.70152677	     -9.39855626	      0.91717209	      0.92575363	      0.53185199	     18.01339127	      6.01989837	     -2.60199465	     21.22629916	     21.22629916	     10.86846103	      4.39848301	     -2.27391176	     -1.29905883	    -11.96969999	    -11.84583124	     19.85019036	     19.85019036	     17.70946906	     -8.80291318	      2.50458663	     -7.39483501	      7.00836645	      0.33327536	     -8.52633448	    -14.81997304	    -15.79340641	     27.91109867	     46.15217614	      0.00000000	      0.00000000	     32.18015115	    -18.95093669	     -8.45539638	     73.75041121	     47.73860450	      0.00000000	      0.00000000
     36.39428571	     -4.99259962	     -4.78377824	     -8.96588449	      0.91765903	      0.92582533	      0.53622639	     17.51056194	      6.31329307	     -2.78581701	     21.22490817	     21.22490817	     11.30993174	      4.10830865	     -1.91965013	     -0.47189242	    -12.63314666	    -11.09685746	     22.02394907	     22.02394907	     16.84721470	     -9.63563674	      1.04028313	     -7.35895979	      6.96159490	      0.50179185	     -7.72621664	    -15.02327579	    -16.08008291	     27.68746676	     46.21113184	      0.00000000	      0.00000000	     30.54919563	    -18.12705535	     -7.53035910	     70.89565176	     47.61544733	      0.00000000	      0.00000000
     36.41814286	     -4.85360296	     -4.87163548	     -8.49371828	      0.91788312	      0.92582723	      0.54026530	     16.98092787	      6.57024223	     -3.05184902	     21.25441387	     21.25441387	     11.64974780	      3.85779060	     -1.94147661	      0.66941320	    -13.31479839	    -10.18698583	     24.84960188	     24.84960188	     16.25341935	    -10.51125256	      0.34281821	     -7.47722543	      6.90924786	      0.35953318	     -6.69308705	    -15.18584281	    -16.15956760	     28.11077794	     46.21141729	      0.00000000	      0.00000000	     28.15107579	    -17.43372933	     -7.06104607	     69.16900957	     47.53750668	      0.00000000	      0.00000000
     36.44200000	     -4.70745228	     -4.91707789	     -7.99159294	      0.91785839	      0.92558093	      0.54404375	     16.59384937	      6.79253671	     -3.20074171	     21.51859259	     21.51859259	     12.16284835	      3.36455330	     -1.64397477	      2.01604115	    -13.89774751	     -9.05346029	     27.89060088	     27.89060088	     14.78826044	    -12.02237853	     -1.96525160	     -7.47869419	      6.84372402	      0.39983168	     -5.32571300	    -15.29169072	    -16.28777997	     27.83885096	     46.26281148	      0.00000000	      0.00000000	     26.29055105	    -16.41641574	     -6.44025452	     65.41037977	     47.42357278	      0.00000000	      0.00000000
     36.46585714	     -4.54727434	     -4.99037790	     -7.50346438	      0.91752719	      0.92507588	      0.54765722	     16.25777662	      7.03559897	     -3.38983368	     21.84949243	     21.84949243	     12.57964418	      2.84996141	     -1.70852857	      3.75437067	    -14.55425347	     -8.00323660	     31.65443193	     31.65443193	     13.86816260	    -13.21498920	     -2.68189566	     -7.60292150	      6.77746064	      0.18530125	     -3.75180013	    -15.32185177	    -16.33881897	     28.45864138	     46.25655942	      0.00000000	      0.00000000	     23.61640185	    -15.69463344	     -5.94330013	     63.14603123	     47.33335870	      0.00000000	      0.00000000
     36.48971429	     -4.26012212	     -5.11901214	     -6.95571176	      0.91692880	      0.92439036	      0.55099102	     15.90738921	      7.31521543	     -3.54419041	     22.37154037	     22.37154037	     13.09262446	      2.20482849	     -1.81020511	      5.62452260	    -15.20630617	     -6.80451556	     35.74093865	     35.74093865	     12.82504474	    -14.50037199	     -3.22889018	     -7.96048495	      6.75677363	      0.08172039	     -1.98704719	    -15.33132259	    -16.33084304	     29.02575348	     46.24883892	      0.00000000	      0.00000000	     21.02428342	    -14.80471970	     -5.44238217	     60.61058922	     47.23935148	      0.00000000	      0.00000000
     36.51357143	     -4.02927698	     -5.04309692	     -6.37579668	      0.91605341	      0.92331124	      0.55399824	     15.87890009	      7.43256573	     -3.38590254	     23.29162569	     23.29162569	     13.72995496	      0.95194553	     -1.63385268	      7.78175709	    -15.51174280	     -5.46353535	     39.96605513	     39.96605513	     11.68830752	    -16.03312819	     -3.12637042	     -8.02588749	      6.54929486	     -0.29873460	      0.38856361	    -15.15096237	    -16.18732272	     29.07117847	     46.26255791	      0.00000000	      0.00000000	     18.99522534	    -13.94358297	     -4.97266571	     55.37245563	     47.12027904	      0.00000000	      0.00000000
     36.53742857	     -3.65813208	     -5.28434367	     -5.74889585	      0.91498245	      0.92199342	      0.55679901	     15.64541636	      7.79452833	     -3.65468296	     24.11468091	     24.11468091	     14.29458729	      0.18318160	     -1.78947306	      9.99098635	    -16.19728704	     -4.27270568	     44.37457773	     44.37457773	     10.62943479	    -17.11718458	     -3.04885830	     -8.50332179	      6.63826194	     -0.04132443	      2.37816759	    -15.15671358	    -16.16947235	     29.74529292	     46.25067000	      0.00000000	      0.00000000	     16.43711087	    -12.77307693	     -4.44611197	     52.98971618	     47.02466655	      0.00000000	      0.00000000
     36.56128571	     -3.47191374	     -5.19977642	     -5.02985512	      0.91360790	      0.92021044	      0.55918401	     15.84409485	      7.93287988	     -3.35959266	     25.26512503	     25.26512503	     15.12393922	     -1.49442551	     -1.17228631	     12.74650337	    -16.31594575	     -2.79812857	     49.03344120	     49.03344120	     11.32135102	    -17.65345510	      1.98135128	     -8.48700625	      6.40712033	     -0.14967820	      5.01346622	    -14.91809555	    -15.97207038	     29.38280049	     46.28196107	      0.00000000	      0.00000000	     15.35093438	    -11.64951526	     -3.76628712	     45.33624268	     46.87835201	      0.00000000	      0.00000000
     36.58514286	     -3.17712121	     -5.22661840	     -4.27390783	      0.91207746	      0.91817041	      0.56126003	     16.03609557	      8.08679935	     -3.44075816	     26.60938992	     26.60938992	     15.96588312	     -2.71731108	     -0.80818624	     15.44428520	    -16.49902051	     -1.43699141	     53.40230908	     53.40230908	     12.13253457	    -18.05657613	      7.06790663	     -8.76583551	      6.27351428	     -0.05862856	      7.34014545	    -14.72004962	    -16.23616191	     30.36986103	     46.28443162	      0.00000000	      0.00000000	     13.34327872	    -10.62927973	     -3.09163967	     40.87228973	     46.74769352	      0.00000000	      0.00000000
     36.60900000	     -2.79902421	     -5.31624753	     -3.46208302	      0.91053037	      0.91603035	      0.56314348	     16.10546730	      8.36703742	     -3.34780103	     27.85608962	     27.85608962	     16.66019487	     -4.35872550	     -0.62636709	     17.97898707	    -16.71469250	     -0.20026753	     57.14502302	     57.14502302	     12.54833729	    -18.55516775	     10.73383079	     -9.12140507	      6.18372144	     -0.12432816	      9.95987503	    -14.52002578	    -16.20998391	     31.39738333	     46.26204471	      0.00000000	      0.00000000	     11.19426662	     -9.95078467	     -2.28461874	     36.73991266	     46.59764068	      0.00000000	      0.00000000
     36.63285714	     -2.54736062	     -5.42984072	     -2.55878484	      0.90886999	      0.91361987	      0.56472029	     16.33491345	      8.62350084	     -3.47782748	     29.10559594	     29.10559594	     17.27706498	     -5.81809092	     -0.77047667	     20.57471551	    -16.99911530	      0.86154909	     60.12128953	     60.12128953	     12.15416162	    -18.95322651	     11.63904359	     -9.38906521	      6.15290819	     -0.25853017	     12.54385760	    -14.34912687	    -16.23050619	     32.80817215	     46.22411370	      0.00000000	      0.00000000	      8.44559394	     -9.31432759	     -1.80297873	     34.36631632	     46.48850792	      0.00000000	      0.00000000
     36.65671429	     -2.12855998	     -5.44930749	     -1.64252736	      0.90733056	      0.91178381	      0.56588495	     16.27281559	      8.81465046	     -3.43422839	     30.15128620	     30.15128620	     17.90913238	     -7.44334423	     -0.24210088	     22.98003495	    -16.90275876	      2.05908671	     62.62735094	     62.62735094	     13.69041918	    -19.14244648	     17.40673066	     -9.73621686	      6.03930949	     -0.04260776	     15.16605101	    -14.42983023	    -15.94379137	     34.07225435	     46.17225393	      0.00000000	      0.00000000	      6.75598822	     -8.63848140	     -0.26378148	     29.66667758	     46.22976444	      0.00000000	      0.00000000
